# Blender 3.4.0
# www.blender.org
mtllib Dock.mtl
o Dock
v -0.884465 -0.504170 -1.182874
v -0.884465 -0.504170 -1.376689
v -0.690650 -0.504170 -1.182874
v -0.690650 -0.504170 -1.376689
v -0.870134 0.586573 -1.197205
v -0.884465 0.543772 -1.182874
v -0.875618 0.583315 -1.191721
v -0.880268 0.574037 -1.187072
v -0.883374 0.560151 -1.183965
v -0.870134 0.586573 -1.362358
v -0.884465 0.543772 -1.376689
v -0.875618 0.583315 -1.367842
v -0.880268 0.574037 -1.372491
v -0.883374 0.560151 -1.375598
v -0.704982 0.586573 -1.197205
v -0.690650 0.543772 -1.182874
v -0.699497 0.583315 -1.191721
v -0.694848 0.574037 -1.187072
v -0.691741 0.560151 -1.183965
v -0.704982 0.586573 -1.362358
v -0.690650 0.543772 -1.376689
v -0.699497 0.583315 -1.367842
v -0.694848 0.574037 -1.372492
v -0.691741 0.560151 -1.375598
v 0.884465 -0.504170 -1.182874
v 0.884465 -0.504170 -1.376689
v 0.690650 -0.504170 -1.182874
v 0.690650 -0.504170 -1.376689
v 0.870134 0.586573 -1.197205
v 0.884465 0.543772 -1.182874
v 0.875618 0.583315 -1.191721
v 0.880268 0.574037 -1.187072
v 0.883374 0.560151 -1.183965
v 0.870134 0.586573 -1.362358
v 0.884465 0.543772 -1.376689
v 0.875618 0.583315 -1.367842
v 0.880268 0.574037 -1.372491
v 0.883374 0.560151 -1.375598
v 0.704982 0.586573 -1.197205
v 0.690650 0.543772 -1.182874
v 0.699497 0.583315 -1.191721
v 0.694848 0.574037 -1.187072
v 0.691741 0.560151 -1.183965
v 0.704982 0.586573 -1.362358
v 0.690650 0.543772 -1.376689
v 0.699497 0.583315 -1.367842
v 0.694848 0.574037 -1.372492
v 0.691741 0.560151 -1.375598
v -0.884465 -0.504170 1.182874
v -0.884465 -0.504170 1.376689
v -0.690650 -0.504170 1.182874
v -0.690650 -0.504170 1.376689
v -0.870134 0.586573 1.197205
v -0.884465 0.543772 1.182874
v -0.875618 0.583315 1.191721
v -0.880268 0.574037 1.187072
v -0.883374 0.560151 1.183965
v -0.870134 0.586573 1.362358
v -0.884465 0.543772 1.376689
v -0.875618 0.583315 1.367842
v -0.880268 0.574037 1.372491
v -0.883374 0.560151 1.375598
v -0.704982 0.586573 1.197205
v -0.690650 0.543772 1.182874
v -0.699497 0.583315 1.191721
v -0.694848 0.574037 1.187072
v -0.691741 0.560151 1.183965
v -0.704982 0.586573 1.362358
v -0.690650 0.543772 1.376689
v -0.699497 0.583315 1.367842
v -0.694848 0.574037 1.372492
v -0.691741 0.560151 1.375598
v 0.884465 -0.504170 1.182874
v 0.884465 -0.504170 1.376689
v 0.690650 -0.504170 1.182874
v 0.690650 -0.504170 1.376689
v 0.870134 0.586573 1.197205
v 0.884465 0.543772 1.182874
v 0.875618 0.583315 1.191721
v 0.880268 0.574037 1.187072
v 0.883374 0.560151 1.183965
v 0.870134 0.586573 1.362358
v 0.884465 0.543772 1.376689
v 0.875618 0.583315 1.367842
v 0.880268 0.574037 1.372491
v 0.883374 0.560151 1.375598
v 0.704982 0.586573 1.197205
v 0.690650 0.543772 1.182874
v 0.699497 0.583315 1.191721
v 0.694848 0.574037 1.187072
v 0.691741 0.560151 1.183965
v 0.704982 0.586573 1.362358
v 0.690650 0.543772 1.376689
v 0.699497 0.583315 1.367842
v 0.694848 0.574037 1.372492
v 0.691741 0.560151 1.375598
v -1.000000 0.388310 1.495294
v 1.000000 0.388310 1.495294
v -1.000000 0.388310 -1.495294
v 1.000000 0.388310 -1.495294
v -1.000000 0.388310 -1.063067
v -1.000000 0.388310 -1.073067
v -1.000000 0.388310 -0.635840
v -1.000000 0.388310 -0.645840
v -1.000000 0.388310 -0.208613
v -1.000000 0.388310 -0.218613
v -1.000000 0.388310 0.218614
v -1.000000 0.388310 0.208614
v -1.000000 0.388310 0.645841
v -1.000000 0.388310 0.635841
v -1.000000 0.388310 1.073068
v -1.000000 0.388310 1.063068
v 1.000000 0.388310 1.063067
v 1.000000 0.388310 1.073067
v 1.000000 0.388310 0.635840
v 1.000000 0.388310 0.645840
v 1.000000 0.388310 0.208613
v 1.000000 0.388310 0.218613
v 1.000000 0.388310 -0.218614
v 1.000000 0.388310 -0.208614
v 1.000000 0.388310 -0.645841
v 1.000000 0.388310 -0.635841
v 1.000000 0.388310 -1.073068
v 1.000000 0.388310 -1.063068
v -1.000000 0.445999 1.495294
v 1.000000 0.445999 1.495294
v 1.000000 0.445999 -1.495294
v -1.000000 0.445999 -1.495294
v 1.000000 0.445999 1.063067
v -1.000000 0.445999 1.063068
v -1.000000 0.445999 1.073068
v 1.000000 0.445999 1.073067
v 1.000000 0.445999 0.635840
v -1.000000 0.445999 0.635841
v -1.000000 0.445999 0.645841
v 1.000000 0.445999 0.645840
v 1.000000 0.445999 0.208613
v -1.000000 0.445999 0.208614
v -1.000000 0.445999 0.218614
v 1.000000 0.445999 0.218613
v 1.000000 0.445999 -0.218614
v -1.000000 0.445999 -0.218613
v -1.000000 0.445999 -0.208613
v 1.000000 0.445999 -0.208614
v 1.000000 0.445999 -0.645841
v -1.000000 0.445999 -0.645840
v -1.000000 0.445999 -0.635840
v 1.000000 0.445999 -0.635841
v 1.000000 0.445999 -1.073068
v -1.000000 0.445999 -1.073067
v -1.000000 0.445999 -1.063067
v 1.000000 0.445999 -1.063068
v 0.724596 0.257338 1.336303
v 0.724596 0.383262 1.336303
v 0.724596 0.257338 -1.336303
v 0.724596 0.383262 -1.336303
v 0.850520 0.257338 1.336303
v 0.850520 0.383262 1.336303
v 0.850520 0.257338 -1.336303
v 0.850520 0.383262 -1.336303
v 0.724596 -0.185508 1.340647
v 0.724596 -0.061677 1.363508
v 0.724596 0.299687 -1.287547
v 0.724596 0.423518 -1.264687
v 0.850520 -0.185508 1.340647
v 0.850520 -0.061677 1.363508
v 0.850520 0.299687 -1.287547
v 0.850520 0.423518 -1.264687
v 0.724596 0.314879 1.325527
v 0.724596 0.438710 1.302667
v 0.724596 -0.170316 -1.302667
v 0.724596 -0.046485 -1.325527
v 0.850520 0.314879 1.325527
v 0.850520 0.438710 1.302667
v 0.850520 -0.170316 -1.302667
v 0.850520 -0.046485 -1.325527
v -0.724596 0.257338 1.336303
v -0.724596 0.383262 1.336303
v -0.724596 0.257338 -1.336303
v -0.724596 0.383262 -1.336303
v -0.850520 0.257338 1.336303
v -0.850520 0.383262 1.336303
v -0.850520 0.257338 -1.336303
v -0.850520 0.383262 -1.336303
v -0.724596 -0.185508 1.340647
v -0.724596 -0.061677 1.363508
v -0.724596 0.299687 -1.287547
v -0.724596 0.423518 -1.264687
v -0.850520 -0.185508 1.340647
v -0.850520 -0.061677 1.363508
v -0.850520 0.299687 -1.287547
v -0.850520 0.423518 -1.264687
v -0.724596 0.314879 1.325527
v -0.724596 0.438710 1.302667
v -0.724596 -0.170316 -1.302667
v -0.724596 -0.046485 -1.325527
v -0.850520 0.314879 1.325527
v -0.850520 0.438710 1.302667
v -0.850520 -0.170316 -1.302667
v -0.850520 -0.046485 -1.325527
vn 0.2031 0.9578 -0.2031
vn -0.2031 0.9578 -0.2031
vn -0.2031 0.9578 0.2031
vn 0.2031 0.9578 0.2031
vn 0.5774 -0.5774 -0.5774
vn 0.7064 0.0460 -0.7064
vn 0.7064 0.0460 0.7064
vn 0.5774 -0.5774 0.5774
vn -0.5774 -0.5774 0.5774
vn -0.7064 0.0460 0.7064
vn -0.7064 0.0460 -0.7064
vn -0.5774 -0.5774 -0.5774
vn -0.4902 0.7207 -0.4902
vn -0.4902 0.7207 0.4902
vn -0.6419 0.4194 -0.6419
vn -0.6419 0.4194 0.6419
vn -0.6942 0.1901 -0.6942
vn -0.6942 0.1901 0.6942
vn 0.4902 0.7207 -0.4902
vn 0.6419 0.4194 -0.6419
vn 0.6942 0.1901 -0.6942
vn 0.4902 0.7207 0.4902
vn 0.6419 0.4194 0.6419
vn 0.6942 0.1901 0.6942
vn -0.0000 -1.0000 -0.0000
vn -0.0000 1.0000 -0.0000
vn 1.0000 -0.0000 -0.0000
vn -0.0000 -0.0000 1.0000
vn -1.0000 -0.0000 -0.0000
vn -0.0000 -0.0000 -1.0000
vn -0.0000 0.1815 -0.9834
vn -0.0000 -0.1815 0.9834
vn -0.0000 -0.9834 -0.1815
vn -0.0000 0.9834 0.1815
vn -0.0000 -0.1815 -0.9834
vn -0.0000 0.1815 0.9834
vn -0.0000 -0.9834 0.1815
vn -0.0000 0.9834 -0.1815
vt 0.929608 0.387322
vt 0.178771 0.929608
vt 0.178771 0.387322
vt 1.000000 0.387322
vt 0.178771 1.000000
vt 0.178771 0.387322
vt 0.929608 0.387322
vt 0.249163 0.929608
vt 0.249163 0.387322
vt 1.000000 0.387322
vt 0.249163 1.000000
vt 0.249163 0.387322
vt 0.183976 0.934813
vt 0.929608 0.514763
vt 0.178771 0.514763
vt 0.181984 0.932822
vt 0.931133 0.518443
vt 0.180295 0.931133
vt 0.180295 0.518443
vt 0.930004 0.516755
vt 0.179167 0.516755
vt 0.183976 0.994795
vt 1.000000 0.514763
vt 0.178771 0.514763
vt 0.181984 0.996787
vt 0.998475 0.518443
vt 0.180295 0.998475
vt 0.180295 0.518443
vt 0.999604 0.516755
vt 0.179167 0.516755
vt 0.243958 0.934813
vt 0.929608 0.514763
vt 0.249163 0.514763
vt 0.245949 0.932822
vt 0.931133 0.518443
vt 0.247638 0.931133
vt 0.247638 0.518443
vt 0.930004 0.516755
vt 0.248766 0.516755
vt 0.243958 0.994795
vt 0.249163 0.514763
vt 1.000000 0.514763
vt 0.245949 0.996787
vt 0.247638 0.518443
vt 0.247638 0.998476
vt 0.998476 0.518443
vt 0.248766 0.516755
vt 0.999604 0.516755
vt 0.929608 0.387322
vt 0.821229 0.929608
vt 0.821229 0.387322
vt 1.000000 0.387322
vt 0.821229 1.000000
vt 0.821229 0.387322
vt 0.929608 0.387322
vt 0.750837 0.929608
vt 0.750837 0.387322
vt 1.000000 0.387322
vt 0.750837 1.000000
vt 0.750837 0.387322
vt 0.816024 0.934813
vt 0.929608 0.514763
vt 0.821229 0.514763
vt 0.818016 0.932822
vt 0.931133 0.518443
vt 0.819705 0.931133
vt 0.819705 0.518443
vt 0.930004 0.516755
vt 0.820833 0.516755
vt 0.816024 0.994795
vt 1.000000 0.514763
vt 0.821229 0.514763
vt 0.818016 0.996787
vt 0.998475 0.518443
vt 0.819705 0.998475
vt 0.819705 0.518443
vt 0.999604 0.516755
vt 0.820833 0.516755
vt 0.756042 0.934813
vt 0.929608 0.514763
vt 0.750837 0.514763
vt 0.754051 0.932822
vt 0.931133 0.518443
vt 0.752362 0.931133
vt 0.752362 0.518443
vt 0.930004 0.516755
vt 0.751234 0.516755
vt 0.756042 0.994795
vt 0.750837 0.514763
vt 1.000000 0.514763
vt 0.754051 0.996787
vt 0.752362 0.518443
vt 0.752362 0.998476
vt 0.998476 0.518443
vt 0.751234 0.516755
vt 0.999604 0.516755
vt 0.070392 0.387322
vt 0.178771 0.070392
vt 0.178771 0.387322
vt 0.000000 0.387322
vt 0.178771 0.000000
vt 0.178771 0.387322
vt 0.070392 0.387322
vt 0.249163 0.070392
vt 0.249163 0.387322
vt 0.000000 0.387322
vt 0.249163 0.000000
vt 0.249163 0.387322
vt 0.183976 0.065187
vt 0.070392 0.514763
vt 0.178771 0.514763
vt 0.181984 0.067179
vt 0.068867 0.518443
vt 0.180295 0.068867
vt 0.180295 0.518443
vt 0.069996 0.516755
vt 0.179167 0.516755
vt 0.183976 0.005205
vt 0.000000 0.514763
vt 0.178771 0.514763
vt 0.181984 0.003213
vt 0.001525 0.518443
vt 0.180295 0.001525
vt 0.180295 0.518443
vt 0.000396 0.516755
vt 0.179167 0.516755
vt 0.243958 0.065187
vt 0.070392 0.514763
vt 0.249163 0.514763
vt 0.245949 0.067179
vt 0.068867 0.518443
vt 0.247638 0.068867
vt 0.247638 0.518443
vt 0.069996 0.516755
vt 0.248766 0.516755
vt 0.243958 0.005205
vt 0.249163 0.514763
vt 0.000000 0.514763
vt 0.245949 0.003213
vt 0.247638 0.518443
vt 0.247638 0.001525
vt 0.001525 0.518443
vt 0.248766 0.516755
vt 0.000396 0.516755
vt 0.070392 0.387322
vt 0.821229 0.070392
vt 0.821229 0.387322
vt 0.000000 0.387322
vt 0.821229 0.000000
vt 0.821229 0.387322
vt 0.070392 0.387322
vt 0.750837 0.070392
vt 0.750837 0.387322
vt 0.000000 0.387322
vt 0.750837 0.000000
vt 0.750837 0.387322
vt 0.816024 0.065187
vt 0.070392 0.514763
vt 0.821229 0.514763
vt 0.818016 0.067179
vt 0.068867 0.518443
vt 0.819705 0.068867
vt 0.819705 0.518443
vt 0.069996 0.516755
vt 0.820833 0.516755
vt 0.816024 0.005205
vt 0.000000 0.514763
vt 0.821229 0.514763
vt 0.818016 0.003213
vt 0.001525 0.518443
vt 0.819705 0.001525
vt 0.819705 0.518443
vt 0.000396 0.516755
vt 0.820833 0.516755
vt 0.756042 0.065187
vt 0.070392 0.514763
vt 0.750837 0.514763
vt 0.754051 0.067179
vt 0.068867 0.518443
vt 0.752362 0.068867
vt 0.752362 0.518443
vt 0.069996 0.516755
vt 0.751234 0.516755
vt 0.756042 0.005205
vt 0.750837 0.514763
vt 0.000000 0.514763
vt 0.754051 0.003213
vt 0.752362 0.518443
vt 0.752362 0.001525
vt 0.001525 0.518443
vt 0.751234 0.516755
vt 0.000396 0.516755
vt 0.000000 0.834382
vt 0.490355 1.000000
vt 0.490355 0.834382
vt 0.000000 0.165618
vt 0.490355 0.165618
vt 0.490355 1.000000
vt 1.000000 0.834382
vt 0.490355 0.000000
vt 0.490355 0.834382
vt 1.000000 0.165618
vt 0.490355 0.165618
vt 0.490355 0.000000
vt 0.855471 0.834382
vt 0.490355 0.834382
vt 0.490355 0.144529
vt 0.858815 0.834382
vt 0.490355 0.834382
vt 0.490355 0.141185
vt 0.712614 0.834382
vt 0.490355 0.834382
vt 0.490355 0.287386
vt 0.715958 0.834382
vt 0.490355 0.834382
vt 0.490355 0.284042
vt 0.569757 0.834382
vt 0.490355 0.430243
vt 0.490355 0.834382
vt 0.573100 0.834382
vt 0.490355 0.426900
vt 0.490355 0.834382
vt 0.426899 0.834382
vt 0.490355 0.834382
vt 0.490355 0.573101
vt 0.430243 0.834382
vt 0.490355 0.834382
vt 0.490355 0.569757
vt 0.284042 0.834382
vt 0.490355 0.715958
vt 0.490355 0.834382
vt 0.287386 0.834382
vt 0.490355 0.834382
vt 0.490355 0.712614
vt 0.141185 0.834382
vt 0.490355 0.858815
vt 0.490355 0.834382
vt 0.144529 0.834382
vt 0.490355 0.855471
vt 0.490355 0.834382
vt 0.144529 0.165618
vt 0.490355 0.855471
vt 0.490355 0.165618
vt 0.141185 0.165618
vt 0.490355 0.858815
vt 0.490355 0.165618
vt 0.287386 0.165618
vt 0.490355 0.712614
vt 0.490355 0.165618
vt 0.284042 0.165618
vt 0.490355 0.715958
vt 0.490355 0.165618
vt 0.430243 0.165618
vt 0.490355 0.165618
vt 0.490355 0.569757
vt 0.426900 0.165618
vt 0.490355 0.573100
vt 0.490355 0.165618
vt 0.573101 0.165618
vt 0.490355 0.426899
vt 0.490355 0.165618
vt 0.569757 0.165618
vt 0.490355 0.430243
vt 0.490355 0.165618
vt 0.715958 0.165618
vt 0.490355 0.165618
vt 0.490355 0.284042
vt 0.712614 0.165618
vt 0.490355 0.165618
vt 0.490355 0.287386
vt 0.858815 0.165618
vt 0.490355 0.165618
vt 0.490355 0.141185
vt 0.855471 0.165618
vt 0.490355 0.165618
vt 0.490355 0.144529
vt 0.000000 0.834382
vt 0.509645 1.000000
vt 0.509645 0.834382
vt 0.000000 0.165618
vt 0.509645 0.165618
vt 0.509645 1.000000
vt 1.000000 0.165618
vt 0.509645 0.165618
vt 0.509645 0.000000
vt 1.000000 0.834382
vt 0.509645 0.000000
vt 0.509645 0.834382
vt 0.144529 0.165618
vt 0.509645 0.855471
vt 0.509645 0.165618
vt 0.144529 0.834382
vt 0.509645 0.855471
vt 0.509645 0.834382
vt 0.141185 0.834382
vt 0.509645 0.858815
vt 0.509645 0.834382
vt 0.141185 0.165618
vt 0.509645 0.858815
vt 0.509645 0.165618
vt 0.287386 0.165618
vt 0.509645 0.712614
vt 0.509645 0.165618
vt 0.287386 0.834382
vt 0.509645 0.834382
vt 0.509645 0.712614
vt 0.284042 0.834382
vt 0.509645 0.715958
vt 0.509645 0.834382
vt 0.284042 0.165618
vt 0.509645 0.715958
vt 0.509645 0.165618
vt 0.430243 0.165618
vt 0.509645 0.165618
vt 0.509645 0.569757
vt 0.430243 0.834382
vt 0.509645 0.834382
vt 0.509645 0.569757
vt 0.426899 0.834382
vt 0.509645 0.834382
vt 0.509645 0.573101
vt 0.426900 0.165618
vt 0.509645 0.573100
vt 0.509645 0.165618
vt 0.573101 0.165618
vt 0.509645 0.426899
vt 0.509645 0.165618
vt 0.573100 0.834382
vt 0.509645 0.426900
vt 0.509645 0.834382
vt 0.569757 0.834382
vt 0.509645 0.430243
vt 0.509645 0.834382
vt 0.569757 0.165618
vt 0.509645 0.430243
vt 0.509645 0.165618
vt 0.715958 0.165618
vt 0.509645 0.165618
vt 0.509645 0.284042
vt 0.715958 0.834382
vt 0.509645 0.834382
vt 0.509645 0.284042
vt 0.712614 0.834382
vt 0.509645 0.834382
vt 0.509645 0.287386
vt 0.712614 0.165618
vt 0.509645 0.165618
vt 0.509645 0.287386
vt 0.858815 0.165618
vt 0.509645 0.165618
vt 0.509645 0.141185
vt 0.858815 0.834382
vt 0.509645 0.834382
vt 0.509645 0.141185
vt 0.855471 0.834382
vt 0.509645 0.834382
vt 0.509645 0.144529
vt 0.855471 0.165618
vt 0.509645 0.165618
vt 0.509645 0.144529
vt 0.481368 1.042792
vt 0.768388 0.524510
vt 0.768388 0.009728
vt 0.528010 1.042792
vt 0.768388 0.571151
vt 0.768388 0.009728
vt 0.481368 0.052869
vt 0.768388 0.524510
vt 0.768388 0.999651
vt 0.528010 0.052869
vt 0.768388 0.571151
vt 0.768388 0.999651
vt 0.481368 1.042792
vt 0.815029 0.524510
vt 0.815029 0.009728
vt 0.528010 1.042792
vt 0.815029 0.571151
vt 0.815029 0.009728
vt 0.815029 0.524510
vt 0.481368 0.052869
vt 0.815029 0.999651
vt 0.815029 0.571151
vt 0.528010 0.052869
vt 0.815029 0.999651
vt 0.514107 -0.021683
vt 0.768388 0.360481
vt 0.768388 0.008118
vt 0.467466 -0.021698
vt 0.768388 0.406347
vt 0.768388 -0.000349
vt 0.513777 0.968241
vt 0.768388 0.540195
vt 0.768388 0.981592
vt 0.467136 0.968225
vt 0.768388 0.586062
vt 0.768388 0.973125
vt 0.514107 -0.021683
vt 0.815029 0.360481
vt 0.815029 0.008118
vt 0.467466 -0.021698
vt 0.815029 0.406347
vt 0.815029 -0.000349
vt 0.815029 0.540195
vt 0.513777 0.968241
vt 0.815029 0.981592
vt 0.815029 0.586062
vt 0.467136 0.968225
vt 0.815029 0.973125
vt 0.480223 0.973805
vt 0.768388 0.545822
vt 0.768388 0.013719
vt 0.526865 0.973913
vt 0.768388 0.591689
vt 0.768388 0.022186
vt 0.482514 -0.016116
vt 0.768388 0.366108
vt 0.768388 0.987192
vt 0.529155 -0.016008
vt 0.768388 0.411974
vt 0.768388 0.995660
vt 0.480223 0.973805
vt 0.815029 0.545822
vt 0.815029 0.013719
vt 0.526865 0.973913
vt 0.815029 0.591689
vt 0.815029 0.022186
vt 0.815029 0.366108
vt 0.482514 -0.016116
vt 0.815029 0.987192
vt 0.815029 0.411974
vt 0.529155 -0.016008
vt 0.815029 0.995660
vt 0.481368 1.042792
vt 0.768388 0.524510
vt 0.768388 0.009728
vt 0.528010 1.042792
vt 0.768388 0.571151
vt 0.768388 0.009728
vt 0.481368 0.052869
vt 0.768388 0.524510
vt 0.768388 0.999651
vt 0.528010 0.052869
vt 0.768388 0.571151
vt 0.768388 0.999651
vt 0.481368 1.042792
vt 0.815029 0.524510
vt 0.815029 0.009728
vt 0.528010 1.042792
vt 0.815029 0.571151
vt 0.815029 0.009728
vt 0.815029 0.524510
vt 0.481368 0.052869
vt 0.815029 0.999651
vt 0.815029 0.571151
vt 0.528010 0.052869
vt 0.815029 0.999651
vt 0.514107 -0.021683
vt 0.768388 0.360481
vt 0.768388 0.008118
vt 0.467466 -0.021698
vt 0.768388 0.406347
vt 0.768388 -0.000349
vt 0.513777 0.968241
vt 0.768388 0.540195
vt 0.768388 0.981592
vt 0.467136 0.968225
vt 0.768388 0.586062
vt 0.768388 0.973125
vt 0.514107 -0.021683
vt 0.815029 0.360481
vt 0.815029 0.008118
vt 0.467466 -0.021698
vt 0.815029 0.406347
vt 0.815029 -0.000349
vt 0.815029 0.540195
vt 0.513777 0.968241
vt 0.815029 0.981592
vt 0.815029 0.586062
vt 0.467136 0.968225
vt 0.815029 0.973125
vt 0.480223 0.973805
vt 0.768388 0.545822
vt 0.768388 0.013719
vt 0.526865 0.973913
vt 0.768388 0.591689
vt 0.768388 0.022186
vt 0.482514 -0.016116
vt 0.768388 0.366108
vt 0.768388 0.987192
vt 0.529155 -0.016008
vt 0.768388 0.411974
vt 0.768388 0.995660
vt 0.480223 0.973805
vt 0.815029 0.545822
vt 0.815029 0.013719
vt 0.526865 0.973913
vt 0.815029 0.591689
vt 0.815029 0.022186
vt 0.815029 0.366108
vt 0.482514 -0.016116
vt 0.815029 0.987192
vt 0.815029 0.411974
vt 0.529155 -0.016008
vt 0.815029 0.995660
s 1
g Dock_ambientCG/Wood006/1K-PNG
usemtl ambientCG/Wood006/1K-PNG
f 20/40/1 10/22/2 5/13/3 15/31/4
f 4/10/5 21/42/6 16/32/7 3/7/8
f 1/1/9 6/14/10 11/23/11 2/4/12
f 2/5/12 4/11/5 3/8/8 1/2/9
f 2/6/12 11/24/11 21/41/6 4/12/5
f 5/13/3 10/22/2 12/25/13 7/16/14
f 7/16/14 12/25/13 13/27/15 8/18/16
f 8/17/16 13/26/15 14/29/17 9/20/18
f 9/20/18 14/29/17 11/23/11 6/14/10
f 10/22/2 20/40/1 22/43/19 12/25/13
f 12/25/13 22/43/19 23/45/20 13/27/15
f 13/28/15 23/44/20 24/47/21 14/30/17
f 14/30/17 24/47/21 21/41/6 11/24/11
f 20/40/1 15/31/4 17/34/22 22/43/19
f 22/43/19 17/34/22 18/36/23 23/45/20
f 23/46/20 18/35/23 19/38/24 24/48/21
f 24/48/21 19/38/24 16/32/7 21/42/6
f 15/31/4 5/13/3 7/16/14 17/34/22
f 17/34/22 7/16/14 8/18/16 18/36/23
f 18/37/23 8/19/16 9/21/18 19/39/24
f 19/39/24 9/21/18 6/15/10 16/33/7
f 3/9/8 16/33/7 6/15/10 1/3/9
f 44/88/2 39/79/3 29/61/4 34/70/1
f 28/58/12 27/55/9 40/80/10 45/90/11
f 25/49/8 26/52/5 35/71/6 30/62/7
f 26/53/5 25/50/8 27/56/9 28/59/12
f 26/54/5 28/60/12 45/89/11 35/72/6
f 29/61/4 31/64/22 36/73/19 34/70/1
f 31/64/22 32/66/23 37/75/20 36/73/19
f 32/65/23 33/68/24 38/77/21 37/74/20
f 33/68/24 30/62/7 35/71/6 38/77/21
f 34/70/1 36/73/19 46/91/13 44/88/2
f 36/73/19 37/75/20 47/93/15 46/91/13
f 37/76/20 38/78/21 48/95/17 47/92/15
f 38/78/21 35/72/6 45/89/11 48/95/17
f 44/88/2 46/91/13 41/82/14 39/79/3
f 46/91/13 47/93/15 42/84/16 41/82/14
f 47/94/15 48/96/17 43/86/18 42/83/16
f 48/96/17 45/90/11 40/80/10 43/86/18
f 39/79/3 41/82/14 31/64/22 29/61/4
f 41/82/14 42/84/16 32/66/23 31/64/22
f 42/85/16 43/87/18 33/69/24 32/67/23
f 43/87/18 40/81/10 30/63/7 33/69/24
f 27/57/9 25/51/8 30/63/7 40/81/10
f 68/136/4 63/127/1 53/109/2 58/118/3
f 52/106/8 51/103/5 64/128/6 69/138/7
f 49/97/12 50/100/9 59/119/10 54/110/11
f 50/101/9 49/98/12 51/104/5 52/107/8
f 50/102/9 52/108/8 69/137/7 59/120/10
f 53/109/2 55/112/13 60/121/14 58/118/3
f 55/112/13 56/114/15 61/123/16 60/121/14
f 56/113/15 57/116/17 62/125/18 61/122/16
f 57/116/17 54/110/11 59/119/10 62/125/18
f 58/118/3 60/121/14 70/139/22 68/136/4
f 60/121/14 61/123/16 71/141/23 70/139/22
f 61/124/16 62/126/18 72/143/24 71/140/23
f 62/126/18 59/120/10 69/137/7 72/143/24
f 68/136/4 70/139/22 65/130/19 63/127/1
f 70/139/22 71/141/23 66/132/20 65/130/19
f 71/142/23 72/144/24 67/134/21 66/131/20
f 72/144/24 69/138/7 64/128/6 67/134/21
f 63/127/1 65/130/19 55/112/13 53/109/2
f 65/130/19 66/132/20 56/114/15 55/112/13
f 66/133/20 67/135/21 57/117/17 56/115/15
f 67/135/21 64/129/6 54/111/11 57/117/17
f 51/105/5 49/99/12 54/111/11 64/129/6
f 92/184/3 82/166/4 77/157/1 87/175/2
f 76/154/9 93/186/10 88/176/11 75/151/12
f 73/145/5 78/158/6 83/167/7 74/148/8
f 74/149/8 76/155/9 75/152/12 73/146/5
f 74/150/8 83/168/7 93/185/10 76/156/9
f 77/157/1 82/166/4 84/169/22 79/160/19
f 79/160/19 84/169/22 85/171/23 80/162/20
f 80/161/20 85/170/23 86/173/24 81/164/21
f 81/164/21 86/173/24 83/167/7 78/158/6
f 82/166/4 92/184/3 94/187/14 84/169/22
f 84/169/22 94/187/14 95/189/16 85/171/23
f 85/172/23 95/188/16 96/191/18 86/174/24
f 86/174/24 96/191/18 93/185/10 83/168/7
f 92/184/3 87/175/2 89/178/13 94/187/14
f 94/187/14 89/178/13 90/180/15 95/189/16
f 95/190/16 90/179/15 91/182/17 96/192/18
f 96/192/18 91/182/17 88/176/11 93/186/10
f 87/175/2 77/157/1 79/160/19 89/178/13
f 89/178/13 79/160/19 80/162/20 90/180/15
f 90/181/15 80/163/20 81/165/21 91/183/17
f 91/183/17 81/165/21 78/159/6 88/177/11
f 75/153/12 88/177/11 78/159/6 73/147/5
s 0
f 104/214/25 101/205/25 124/274/25 121/265/25
f 97/193/25 111/235/25 114/244/25 98/196/25
f 112/238/25 109/229/25 116/250/25 113/241/25
f 110/232/25 107/223/25 118/256/25 115/247/25
f 108/226/25 105/217/25 120/262/25 117/253/25
f 106/220/25 103/211/25 122/268/25 119/259/25
f 102/208/25 99/199/25 100/202/25 123/271/25
f 146/340/26 145/337/26 152/358/26 151/355/26
f 125/277/26 126/280/26 132/298/26 131/295/26
f 130/292/26 129/289/26 136/310/26 135/307/26
f 134/304/26 133/301/26 140/322/26 139/319/26
f 138/316/26 137/313/26 144/334/26 143/331/26
f 142/328/26 141/325/26 148/346/26 147/343/26
f 150/352/26 149/349/26 127/283/26 128/286/26
f 115/248/27 118/257/27 140/323/27 133/302/27
f 104/215/28 121/266/28 145/338/28 146/341/28
f 109/230/29 112/239/29 130/293/29 135/308/29
f 122/269/30 103/212/30 147/344/30 148/347/30
f 113/242/27 116/251/27 136/311/27 129/290/27
f 102/209/28 123/272/28 149/350/28 150/353/28
f 111/236/29 97/194/29 125/278/29 131/296/29
f 124/275/30 101/206/30 151/356/30 152/359/30
f 97/195/28 98/197/28 126/281/28 125/279/28
f 98/198/27 114/245/27 132/299/27 126/282/27
f 99/200/29 102/210/29 150/354/29 128/287/29
f 100/203/30 99/201/30 128/288/30 127/284/30
f 123/273/27 100/204/27 127/285/27 149/351/27
f 112/240/28 113/243/28 129/291/28 130/294/28
f 101/207/29 104/216/29 146/342/29 151/357/29
f 114/246/30 111/237/30 131/297/30 132/300/30
f 121/267/27 124/276/27 152/360/27 145/339/27
f 110/233/28 115/249/28 133/303/28 134/305/28
f 103/213/29 106/221/29 142/329/29 147/345/29
f 116/252/30 109/231/30 135/309/30 136/312/30
f 119/260/27 122/270/27 148/348/27 141/326/27
f 108/227/28 117/254/28 137/314/28 138/317/28
f 105/218/29 108/228/29 138/318/29 143/332/29
f 118/258/30 107/224/30 139/320/30 140/324/30
f 117/255/27 120/263/27 144/335/27 137/315/27
f 106/222/28 119/261/28 141/327/28 142/330/28
f 107/225/29 110/234/29 134/306/29 139/321/29
f 120/264/30 105/219/30 143/333/30 144/336/30
f 153/361/29 154/364/29 156/370/29 155/367/29
f 155/368/30 156/371/30 160/382/30 159/379/30
f 159/380/27 160/383/27 158/376/27 157/373/27
f 157/374/28 158/377/28 154/365/28 153/362/28
f 155/369/25 159/381/25 157/375/25 153/363/25
f 160/384/26 156/372/26 154/366/26 158/378/26
f 161/385/29 162/388/29 164/394/29 163/391/29
f 163/392/31 164/395/31 168/406/31 167/403/31
f 167/404/27 168/407/27 166/400/27 165/397/27
f 165/398/32 166/401/32 162/389/32 161/386/32
f 163/393/33 167/405/33 165/399/33 161/387/33
f 168/408/34 164/396/34 162/390/34 166/402/34
f 169/409/29 170/412/29 172/418/29 171/415/29
f 171/416/35 172/419/35 176/430/35 175/427/35
f 175/428/27 176/431/27 174/424/27 173/421/27
f 173/422/36 174/425/36 170/413/36 169/410/36
f 171/417/37 175/429/37 173/423/37 169/411/37
f 176/432/38 172/420/38 170/414/38 174/426/38
f 177/433/27 179/439/27 180/442/27 178/436/27
f 179/440/30 183/451/30 184/454/30 180/443/30
f 183/452/29 181/445/29 182/448/29 184/455/29
f 181/446/28 177/434/28 178/437/28 182/449/28
f 179/441/25 177/435/25 181/447/25 183/453/25
f 184/456/26 182/450/26 178/438/26 180/444/26
f 185/457/27 187/463/27 188/466/27 186/460/27
f 187/464/31 191/475/31 192/478/31 188/467/31
f 191/476/29 189/469/29 190/472/29 192/479/29
f 189/470/32 185/458/32 186/461/32 190/473/32
f 187/465/33 185/459/33 189/471/33 191/477/33
f 192/480/34 190/474/34 186/462/34 188/468/34
f 193/481/27 195/487/27 196/490/27 194/484/27
f 195/488/35 199/499/35 200/502/35 196/491/35
f 199/500/29 197/493/29 198/496/29 200/503/29
f 197/494/36 193/482/36 194/485/36 198/497/36
f 195/489/37 193/483/37 197/495/37 199/501/37
f 200/504/38 198/498/38 194/486/38 196/492/38
